<?xml version="1.0" encoding="UTF-8"?>
<svg version="1.1" xmlns="http://www.w3.org/2000/svg" width="867" height="848">
<path d="M0 0 C286.11 0 572.22 0 867 0 C867 279.84 867 559.68 867 848 C580.89 848 294.78 848 0 848 C0 568.16 0 288.32 0 0 Z " fill="#FDFDFD" transform="translate(0,0)"/>
<path d="M0 0 C13.8657899 6.48108831 22.86150555 19.57029938 31 32 C31.42152344 32.62390625 31.84304688 33.2478125 32.27734375 33.890625 C42.10331258 49.51746699 43.55295468 70.98582443 40.51953125 88.82568359 C39.23491664 94.12471886 37.31936053 99.07413244 35 104 C34.49339844 105.09054687 33.98679687 106.18109375 33.46484375 107.3046875 C27.61582814 118.37039271 18.3783746 128.06212766 8 135 C7.67 135.33 7.34 135.66 7 136 C17.05579901 135.65448084 26.30607076 134.88883926 36 132 C37.29355291 131.65485012 38.58787762 131.31258452 39.8828125 130.97265625 C68.16116291 123.36001604 94.72387259 107.91589409 110.08251953 82.18652344 C112.16060559 78.51132691 114.10690654 74.77401268 116 71 C89.52102836 64.70796713 67.55581364 68.33181184 44 82 C43.35019897 78.81597494 43.21496591 76.17052476 44 73 C52.79373734 62.9326869 70.10375333 58.85739141 82.8996582 57.7487793 C99.98303784 56.84801154 114.2621218 59.51599418 130 66 C124.87478801 82.69576632 114.86244615 96.42048025 103 109 C102.32582031 109.75023437 101.65164063 110.50046875 100.95703125 111.2734375 C83.2415068 130.21874508 55.88045227 141.06138069 30.19140625 142.28515625 C21.06762268 142.53293824 12.73407997 141.92879328 4 139 C4 135 4 135 5.50390625 133.2109375 C6.18324219 132.60507812 6.86257813 131.99921875 7.5625 131.375 C20.92561233 118.57752205 29.52233211 98.97601571 30.37109375 80.43359375 C30.82190627 58.40948587 25.5292926 41.10655071 11 24 C10.08154297 22.86498047 10.08154297 22.86498047 9.14453125 21.70703125 C6.07501763 17.79939019 6.07501763 17.79939019 2.0234375 15.0859375 C-0.08083185 14.79957869 -0.08083185 14.79957869 -1.82421875 16.1953125 C-18.32548031 33.28466933 -27.53365054 52.81963185 -27.42431641 76.69091797 C-26.86514628 98.61113735 -17.52169969 118.62870438 -2 134 C-0.515 134.99 -0.515 134.99 1 136 C1 136.66 1 137.32 1 138 C-0.89545392 138.48066535 -2.79138039 138.95946743 -4.6875 139.4375 C-5.74324219 139.70433594 -6.79898438 139.97117187 -7.88671875 140.24609375 C-8.91410156 140.49488281 -9.94148438 140.74367188 -11 141 C-11.77859375 141.19335938 -12.5571875 141.38671875 -13.359375 141.5859375 C-24.02683691 143.25864602 -35.53107305 142.32970487 -46 140 C-47.40378906 139.72542969 -47.40378906 139.72542969 -48.8359375 139.4453125 C-75.36913612 133.68341146 -100.30200622 114.81888983 -115.16845703 92.22412109 C-117.62873507 88.24486072 -119.8297035 84.14462944 -122 80 C-122.54011719 79.03320312 -123.08023437 78.06640625 -123.63671875 77.0703125 C-124.10722656 76.20148438 -124.57773437 75.33265625 -125.0625 74.4375 C-125.46597656 73.69371094 -125.86945313 72.94992187 -126.28515625 72.18359375 C-127.2135874 69.34756635 -127.0360485 67.78900555 -126 65 C-113.62291444 55.96276292 -89.84064812 56.23710797 -75.37304688 58.39111328 C-64.69603602 60.43760865 -55.16846467 64.11097094 -46 70 C-45.24074219 70.46792969 -44.48148437 70.93585938 -43.69921875 71.41796875 C-41.49350306 73.47156612 -41.42195698 74.72124212 -41.25 77.6875 C-41.19328125 78.49574219 -41.1365625 79.30398438 -41.078125 80.13671875 C-41.05234375 80.75160156 -41.0265625 81.36648438 -41 82 C-43.39804527 80.80691312 -45.78681325 79.59787254 -48.171875 78.37890625 C-69.77657137 67.37319493 -89.29155096 66.33745339 -113 70 C-108.7346349 79.02927937 -104.60486727 87.41421185 -98 95 C-97.195625 96.03125 -96.39125 97.0625 -95.5625 98.125 C-77.20341389 118.72299905 -48.20771035 131.86734252 -21 135 C-15.66206109 135.27154174 -10.33909993 135.1894293 -5 135 C-5.90621094 134.27296875 -6.81242187 133.5459375 -7.74609375 132.796875 C-20.17888287 122.62288308 -28.52071749 111.9057069 -35 97 C-35.43570313 96.0203125 -35.87140625 95.040625 -36.3203125 94.03125 C-41.53293296 80.17953129 -40.73738002 61.88608557 -36 48 C-35.67128906 47.02546875 -35.34257812 46.0509375 -35.00390625 45.046875 C-28.47634968 27.79063548 -15.39717703 10.26478469 0 0 Z " fill="#5E3923" transform="translate(430,484)"/>
<path d="M0 0 C11.77509562 3.7437693 19.17305647 18.64509291 24.5 28.8828125 C29.32052655 38.95426976 31.55064381 48.58768419 31.4375 59.75 C31.43065186 60.79768555 31.42380371 61.84537109 31.41674805 62.92480469 C31.24036318 71.49961965 29.98080919 78.91200632 27 87 C26.61457031 88.06347656 26.22914063 89.12695312 25.83203125 90.22265625 C21.48116447 101.360312 15.58454775 109.86891827 7.390625 118.43359375 C4.91466213 120.95332751 4.91466213 120.95332751 3 124 C2.34 124 1.68 124 1 124 C1 123.34 1 122.68 1 122 C0.40574219 121.72671875 -0.18851562 121.4534375 -0.80078125 121.171875 C-14.11577233 114.07685311 -21.62993823 95.11592408 -25.76416016 81.58081055 C-31.24238346 62.04116368 -28.86160564 41.68527147 -19.3125 23.94140625 C-14.20252949 14.93948837 -7.54785327 7.05560197 0 0 Z " fill="#FCFAF8" transform="translate(430,498)"/>
<path d="M0 0 C13.72793076 -0.56610024 30.349589 -0.51603647 42 8 C43.39328278 11.27118566 42.96424284 12.09875787 41.6875 15.625 C41.26247192 16.6780835 41.26247192 16.6780835 40.82885742 17.75244141 C34.55120776 34.77513441 36.57043587 54.79568604 44 71 C50.04684082 83.63804444 58.89877476 93.86401661 69.9453125 102.35546875 C70.62335938 102.89816406 71.30140625 103.44085937 72 104 C72 104.33 72 104.66 72 105 C42.20344591 106.37346472 11.30201594 96.03841699 -11 76 C-12.05380859 75.14148438 -12.05380859 75.14148438 -13.12890625 74.265625 C-23.07918559 66.08731322 -35.2099064 52.27652754 -37 39 C-14.71519577 33.83607295 5.13526263 35.22488249 26 45 C28.02911258 46.2885961 30.03462795 47.61613206 32 49 C33.485 49.99 33.485 49.99 35 51 C34.79070644 46.71899532 34.34047705 43.21615861 31.0625 40.2421875 C28.4359368 38.63425939 25.79823584 37.28688921 23 36 C21.99453125 35.5359375 20.9890625 35.071875 19.953125 34.59375 C15.43366885 32.62078945 11.33349516 30.96829385 6.4375 30.3125 C3 29 3 29 1.84765625 27.328125 C-1.33121677 18.83159802 -0.24725813 8.91960803 0 0 Z " fill="#FBFAF8" transform="translate(354,515)"/>
<path d="M0 0 C0.02907084 3.58331625 0.04682263 7.16660208 0.0625 10.75 C0.07087891 11.76578125 0.07925781 12.7815625 0.08789062 13.828125 C0.09111328 14.8078125 0.09433594 15.7875 0.09765625 16.796875 C0.10289307 17.69760742 0.10812988 18.59833984 0.11352539 19.52636719 C0.00762312 21.83389804 -0.34867187 23.79134405 -1 26 C-0.01 26.66 0.98 27.32 2 28 C1.12859375 28.15855469 0.2571875 28.31710937 -0.640625 28.48046875 C-11.37776747 30.58374016 -25.17751148 33.63669746 -33 42 C-33.76788618 45.0116387 -33.48730889 46.8595649 -33 50 C-32.30390625 49.45472656 -32.30390625 49.45472656 -31.59375 48.8984375 C-26.66532344 45.31245549 -21.67490941 42.87343729 -16 40.75 C-15.34837891 40.50427246 -14.69675781 40.25854492 -14.02539062 40.00537109 C-5.70671952 37.00278607 2.2168038 35.61178144 11.0625 35.625 C11.96701904 35.62371094 12.87153809 35.62242187 13.8034668 35.62109375 C22.27229832 35.75224327 29.95936137 37.45247093 38 40 C34.38944415 51.56376182 26.92357564 60.11811581 19 69 C18.41476562 69.6703125 17.82953125 70.340625 17.2265625 71.03125 C0.6985627 88.81772695 -25.70733578 99.498126 -49.19140625 103.4921875 C-51.94126282 103.85357308 -51.94126282 103.85357308 -54 105 C-55.4465242 105.15067214 -56.8987934 105.24861036 -58.3515625 105.31640625 C-59.20234375 105.35830078 -60.053125 105.40019531 -60.9296875 105.44335938 C-61.81914062 105.48267578 -62.70859375 105.52199219 -63.625 105.5625 C-64.97078125 105.62727539 -64.97078125 105.62727539 -66.34375 105.69335938 C-68.56234283 105.79956861 -70.7810488 105.90161194 -73 106 C-70.86838589 103.82638364 -68.73150305 102.01683017 -66.25 100.25 C-54.24757147 91.26457537 -45.82895272 79.18725161 -41 65 C-40.74105957 64.30100586 -40.48211914 63.60201172 -40.21533203 62.88183594 C-37.77895845 55.76456698 -37.54955309 49.10262724 -37.625 41.625 C-37.61339844 40.48289062 -37.60179687 39.34078125 -37.58984375 38.1640625 C-37.62093938 29.04267771 -39.2845554 20.97478933 -42.25 12.375 C-43 10 -43 10 -42 8 C-27.88121059 0.77369332 -15.56817506 -0.30525833 0 0 Z " fill="#FBFAFA" transform="translate(508,515)"/>
<path d="M0 0 C7.09050607 4.15717342 12.64948363 9.01286756 15.71484375 16.7890625 C17.722116 24.84190621 17.36974679 33.56974105 13.82421875 41.12109375 C8.27070507 49.99773421 1.18581382 54.23790301 -8.6640625 57.01171875 C-16.48936944 58.71083918 -23.55322238 56.97861169 -30.625 53.4375 C-38.33027985 48.27012217 -43.1012034 41.30936141 -45.625 32.4375 C-46.81706914 22.54960021 -45.15318784 15.31035275 -39.0859375 7.44140625 C-28.97599189 -3.69869969 -13.56834922 -6.34098733 0 0 Z " fill="#D95F0F" transform="translate(445.625,147.5625)"/>
<path d="M0 0 C4.52479515 2.6590517 8.06102822 6.72361894 10.40625 11.4140625 C11.11432275 17.74190254 11.63804894 23.66038523 7.71875 28.9765625 C3.13681662 34.08552577 -1.4303011 37.92019132 -8.42578125 38.75 C-16.41621544 38.85472391 -21.47051242 37.89555104 -27.6015625 32.71875 C-31.88574704 28.43456546 -33.55954557 24.86515694 -33.7265625 18.796875 C-33.38730995 12.71028521 -31.58252587 8.47815447 -27.4921875 4.05859375 C-18.79958816 -3.47141514 -10.31042509 -4.42329965 0 0 Z " fill="#5D3823" transform="translate(226.59375,293.5859375)"/>
<path d="M0 0 C6.2061307 2.82535911 10.85752296 8.10704467 13.5078125 14.3515625 C14.11178979 21.59928999 12.61116972 26.92386926 8.8203125 33.1015625 C3.39305135 38.38214092 -1.41180563 39.64252643 -8.9921875 39.9140625 C-17.17545244 39.68607104 -21.34394887 37.6654979 -26.8671875 31.8515625 C-30.54854856 26.1879301 -31.47389666 21.04968227 -30.4921875 14.3515625 C-25.29564427 1.19781245 -13.32287213 -3.46645262 0 0 Z " fill="#5B3622" transform="translate(668.4921875,386.6484375)"/>
<path d="M0 0 C4.72448811 3.61718621 9.20162189 8.59046787 10.0859375 14.63671875 C10.19498295 21.48477277 9.08561831 26.74834239 4.32421875 31.875 C-1.88591984 37.37907632 -7.76834831 37.84029466 -15.79296875 37.72265625 C-21.96459923 37.03924406 -25.34928501 34.29192941 -29.5625 29.96484375 C-33.54000929 23.77760708 -35.2350774 18.68891997 -33.88671875 11.3671875 C-32.10056786 5.06098128 -27.74946583 1.62808588 -22.25 -1.66015625 C-15.21556107 -4.11436212 -6.43873513 -3.76934285 0 0 Z " fill="#5C3823" transform="translate(227.25,435.66015625)"/>
<path d="M0 0 C6.18215468 2.79155434 10.92342166 8.10760116 13.515625 14.34765625 C14.53125197 20.63385268 13.71396717 25.41141509 10.0078125 30.59375 C5.81266911 35.52469079 1.25337168 38.90428216 -5.31640625 39.68359375 C-12.98770385 39.784135 -18.5271649 39.07520683 -24.234375 33.69921875 C-29.3092961 28.1119258 -30.97632524 23.39187582 -30.796875 15.84375 C-30.13727741 10.57521421 -27.44412298 6.99239814 -23.484375 3.53515625 C-16.39860896 -1.63154815 -8.55848727 -2.24727574 0 0 Z " fill="#5C3622" transform="translate(655.484375,292.65234375)"/>
<path d="M0 0 C4.52761377 3.27631123 8.76489617 7.05889673 10.8515625 12.33984375 C11.60600208 18.27738119 11.26269811 23.28195302 7.8515625 28.33984375 C3.39804625 33.68406325 -1.39380632 36.92674252 -8.34375 37.69140625 C-16.09744434 37.88569016 -20.96981571 37.22277979 -26.8359375 31.90234375 C-32.14326631 26.02124966 -33.53274243 22.04438419 -33.41796875 14.125 C-32.92214856 9.0015247 -31.01710487 6.02853701 -27.2421875 2.6171875 C-19.32051955 -3.63442732 -9.07263862 -5.24570257 0 0 Z " fill="#5C3723" transform="translate(634.1484375,251.66015625)"/>
<path d="M0 0 C4.53512325 2.68071904 8.20833648 6.72917296 10.5625 11.4375 C11.24741634 18.73578885 11.32664651 25.52837905 6.5625 31.4375 C0.87731446 36.57214386 -2.98229858 38.59685057 -10.6875 38.6875 C-11.99203125 38.71328125 -13.2965625 38.7390625 -14.640625 38.765625 C-19.67790256 38.33030472 -22.8524061 36.93932442 -26.51953125 33.46484375 C-27.09058594 32.77519531 -27.66164063 32.08554687 -28.25 31.375 C-28.83394531 30.68277344 -29.41789063 29.99054688 -30.01953125 29.27734375 C-33.78693085 24.38906493 -33.16248977 18.33408347 -32.4375 12.4375 C-29.9101661 6.92808699 -25.25266937 2.9686242 -20.4375 -0.5625 C-14.1386886 -2.6621038 -6.11504343 -2.77310109 0 0 Z " fill="#5B3622" transform="translate(658.4375,434.5625)"/>
<path d="M0 0 C6.31687132 2.7798068 10.57568881 6.72270949 13.13671875 13.1953125 C14.2724108 19.43274618 13.59763235 24.97340142 10.40625 30.4765625 C7.20112931 34.81580281 3.27523396 37.53371285 -1.86328125 39.1953125 C-5.203125 39.49609375 -5.203125 39.49609375 -8.80078125 39.5078125 C-9.98542969 39.52457031 -11.17007813 39.54132813 -12.390625 39.55859375 C-17.82298763 38.99030385 -21.67731005 36.99613962 -25.11328125 32.7578125 C-25.83257812 31.89349609 -25.83257812 31.89349609 -26.56640625 31.01171875 C-30.60921273 25.34935426 -30.57825069 20.00539642 -29.86328125 13.1953125 C-27.9459659 7.16012669 -23.30289489 3.30970703 -18.05859375 0.0859375 C-12.50148547 -2.16854771 -5.67375628 -1.59453451 0 0 Z " fill="#5B3621" transform="translate(210.86328125,386.8046875)"/>
<path d="M0 0 C4.4247378 2.98412549 7.61417082 6.17950888 10 11 C10.90908663 16.91663883 11.01326736 23.12290652 8.125 28.5 C4.70506914 33.00895912 0.37683355 35.41900694 -5 37 C-11.77216658 37.91757173 -18.29190962 37.9090782 -24.28515625 34.3359375 C-29.42380125 30.33271064 -33.36264264 25.53134891 -34.28515625 18.97265625 C-34.63630515 13.70542276 -33.65808952 10.18119931 -30.6328125 5.859375 C-22.19276238 -3.75178256 -11.46136086 -5.60519108 0 0 Z " fill="#5D3823" transform="translate(251,479)"/>
<path d="M0 0 C6.60930066 2.32082313 11.5844796 6.06526325 14.671875 12.46875 C15.46477201 18.88240581 15.63302359 25.10203255 11.671875 30.46875 C6.18474242 36.21109805 0.42057815 39.53791214 -7.640625 39.96875 C-14.35925741 39.75619354 -20.32629351 37.62239825 -25.02734375 32.68359375 C-28.76199229 27.64342336 -29.81095311 23.29372256 -29.73046875 17.16796875 C-28.89085068 11.53519123 -25.65697175 7.27576257 -21.21875 3.83203125 C-14.30528174 -0.57088923 -8.20135884 -1.87145101 0 0 Z " fill="#5C3823" transform="translate(329.328125,189.53125)"/>
<path d="M0 0 C5.13479521 2.86174892 9.04707834 6.65665669 11.6875 11.9375 C12.60597293 19.38991963 12.16676374 25.03119695 7.54296875 31.09375 C3.08703422 35.52154179 -3.11394751 38.03410164 -9.375 38.25 C-15.60840233 38.14847879 -21.48550453 36.44973721 -26.20703125 32.25390625 C-31.22269784 26.57924697 -32.79248811 22.21285577 -32.62109375 14.62109375 C-31.91639298 8.49287315 -27.609095 5.04732214 -23.19140625 1.234375 C-16.14148258 -3.63168458 -7.61763586 -3.49812885 0 0 Z " fill="#5C3722" transform="translate(550.3125,191.0625)"/>
<path d="M0 0 C6.02182047 3.0232332 11.39743664 6.53951582 14.05078125 12.9375 C15.13927496 18.87619361 14.9560575 24.15811124 11.86328125 29.4375 C8.49327626 34.01311241 4.61206941 37.45448982 -0.94921875 38.9375 C-8.81210948 39.59047362 -16.3501708 39.30497448 -22.69921875 34.25 C-27.50007992 29.69082979 -30.13314624 25.66678568 -30.44921875 18.9375 C-30.1737362 13.0723877 -28.36266722 9.41385826 -24.30078125 5.24609375 C-17.2375875 -1.15396172 -9.20297832 -3.31551007 0 0 Z " fill="#5D3823" transform="translate(593.94921875,215.0625)"/>
<path d="M0 0 C6.36524147 2.96057743 11.49660322 6.86820645 14.6875 13.25 C15.18928565 19.69601568 15.64979274 25.83486659 11.6875 31.25 C6.21361503 36.5994785 0.91328328 39.36996064 -6.75 39.6875 C-13.2141992 39.46642616 -17.58364752 37.83324178 -22.2890625 33.37890625 C-27.24949573 27.97958695 -29.82014768 23.79717684 -29.55078125 16.2265625 C-28.79806415 9.98271249 -24.87149736 6.63573184 -20.34765625 2.765625 C-14.12352899 -1.86961757 -7.42008345 -1.68001889 0 0 Z " fill="#5C3824" transform="translate(280.3125,513.75)"/>
<path d="M0 0 C4.08555851 2.58455984 6.82934432 5.68342545 9 10 C10.06150681 16.35258337 9.94668376 22.39729577 6.5625 28 C2.178789 33.5228656 -2.36224423 36.53330052 -9.41015625 37.4375 C-16.17807632 37.66912935 -22.70680734 37.6545708 -28 33 C-32.51527907 27.41296238 -35.43675053 22.67610395 -35.34375 15.4453125 C-34.57601929 9.98395539 -31.13521481 5.79884936 -27.125 2.1875 C-18.11177394 -4.12175824 -9.7990508 -4.55474398 0 0 Z " fill="#5B3723" transform="translate(636,479)"/>
<path d="M0 0 C3.99751159 2.76592024 7.09368639 6.21862278 9.26953125 10.5703125 C10.05990387 17.27718872 9.71956579 22.38766705 5.6875 27.921875 C1.3792007 32.93042129 -3.7891353 36.14013746 -10.37890625 36.859375 C-17.7231875 37.0807095 -22.19920492 35.7876177 -28.41796875 31.8828125 C-32.63622151 27.66455974 -34.92975232 23.07427157 -35.23046875 17.0703125 C-34.91351188 11.31556425 -33.08352267 6.78581838 -28.859375 2.80859375 C-19.56172948 -4.45024859 -10.55730928 -5.81898937 0 0 Z " fill="#5B3722" transform="translate(288.73046875,217.4296875)"/>
<path d="M0 0 C5.82639991 2.96430873 10.47440932 7.54822796 12.5625 13.8125 C13.16382831 19.77952709 12.67534273 24.5595779 9.5625 29.8125 C3.79643644 36.06225101 -1.28913352 38.80060716 -9.8125 39.1875 C-15.90018271 39.05515907 -20.56074106 37.6232109 -24.96875 33.31640625 C-30.26066851 27.14762915 -30.88115698 23.17091161 -30.75 15.203125 C-30.21995262 9.45211088 -27.55725545 6.711725 -23.4375 3.0625 C-16.39114014 -2.22226989 -8.42252833 -2.82355235 0 0 Z " fill="#5B3723" transform="translate(669.4375,339.1875)"/>
<path d="M0 0 C5.22524822 2.89763765 8.71372195 5.73448721 10.625 11.5 C11.8866937 18.00524644 10.29995811 24.03888906 6.625 29.5 C0.99554785 35.10549704 -4.86335222 37.51441986 -12.75 37.9375 C-19.276234 37.80449251 -23.34595131 35.52132153 -27.90625 30.97265625 C-32.41311862 25.82382087 -33.89716767 21.85033445 -33.7578125 15.1015625 C-32.95244829 9.62837307 -29.85604416 5.90509318 -25.9375 2.1875 C-24.6690625 1.3521875 -24.6690625 1.3521875 -23.375 0.5 C-22.50875 -0.0775 -21.6425 -0.655 -20.75 -1.25 C-13.39781822 -3.97303029 -7.08890999 -3.20397779 0 0 Z " fill="#5C3823" transform="translate(600.375,515.5)"/>
<path d="M0 0 C5.71802814 2.8795088 9.69693398 7.57008546 12.1875 13.4375 C13.30072867 19.5661168 11.91099437 24.20387387 8.67578125 29.42578125 C5.14333155 34.20061483 1.09376576 37.23437179 -4.8125 38.4375 C-11.35562269 38.94220368 -17.2506077 39.37152139 -22.8125 35.4375 C-26.8619332 31.87014218 -31.16989564 27.87121418 -32.19921875 22.37109375 C-32.4967219 16.47232448 -31.12965889 11.33952369 -27.8125 6.4375 C-19.80087472 -1.24577998 -10.69317548 -4.22289811 0 0 Z " fill="#5D3924" transform="translate(249.8125,250.5625)"/>
<path d="M0 0 C4.35082953 2.9195286 7.88269327 6.14217928 10 11 C10.94939859 16.53447862 10.9575548 21.93847538 8.3125 27 C3.71759493 32.96095793 -1.5235977 36.40899787 -8.98828125 37.39453125 C-17.13349074 37.80609883 -22.73642211 36.31199586 -29 31 C-33.34819413 26.17766768 -34.49098764 21.03890361 -34.3984375 14.69921875 C-33.55688796 8.99813313 -30.33953371 5.04769004 -26.08984375 1.328125 C-18.50899352 -3.71632861 -8.12128848 -4.03320745 0 0 Z " fill="#5C3722" transform="translate(501,176)"/>
<path d="M0 0 C4.81690509 2.70479458 8.24289221 6.00283811 10.74609375 10.98046875 C11.55154945 16.30663526 11.67804015 22.02584327 9.18359375 26.91796875 C4.35075481 32.98999716 -1.16746319 36.36773323 -8.9453125 37.3046875 C-16.84491964 37.75868791 -22.15813408 36.06219943 -28.25390625 30.98046875 C-32.60936335 26.16289419 -33.72888975 21.01814202 -33.6640625 14.68359375 C-32.84925467 9.31362213 -29.67424864 5.08158132 -25.625 1.56640625 C-18.27121695 -3.55728219 -8.08358556 -3.57963352 0 0 Z " fill="#5D3823" transform="translate(384.25390625,176.01953125)"/>
<path d="M0 0 C3.69118047 1.89565145 6.39469865 4.09544543 9.0625 7.3125 C9.660625 8.01375 10.25875 8.715 10.875 9.4375 C12.78932861 14.07219032 12.89805417 18.38677342 12.0625 23.3125 C9.15569767 29.69777579 4.82035679 34.47939913 -1.5 37.5625 C-8.22662373 39.03012699 -15.24183798 39.80688025 -21.375 36.1875 C-25.69167206 33.02194049 -29.21820085 29.47039744 -30.9375 24.3125 C-31.60909924 18.0980817 -32.17646772 12.11190411 -28.4375 6.8125 C-20.5191171 -1.87930634 -11.24657222 -4.57360604 0 0 Z " fill="#5C3822" transform="translate(211.9375,339.6875)"/>
<path d="M0 0 C13.72793076 -0.56610024 30.349589 -0.51603647 42 8 C43.60567475 11.76984508 42.29957194 14.08783304 40.83203125 17.7734375 C37.76446107 25.98242813 37.65473904 34.55588666 37.42919922 43.21972656 C37.38690186 44.48768066 37.38690186 44.48768066 37.34375 45.78125 C37.32505859 46.54501953 37.30636719 47.30878906 37.28710938 48.09570312 C37 50 37 50 35 52 C34.97164063 51.34773437 34.94328125 50.69546875 34.9140625 50.0234375 C34.47489075 45.99967474 34.0902256 43.02648257 31.0625 40.17578125 C28.43732698 38.57291118 25.80739291 37.25732169 23 36 C21.99453125 35.53722656 20.9890625 35.07445312 19.953125 34.59765625 C15.4347077 32.61941517 11.3344066 30.96841593 6.4375 30.3125 C3 29 3 29 1.84765625 27.328125 C-1.33121677 18.83159802 -0.24725813 8.91960803 0 0 Z " fill="#F9F8F6" transform="translate(354,515)"/>
<path d="M0 0 C0.02907084 3.58331625 0.04682263 7.16660208 0.0625 10.75 C0.07087891 11.76578125 0.07925781 12.7815625 0.08789062 13.828125 C0.09111328 14.8078125 0.09433594 15.7875 0.09765625 16.796875 C0.10289307 17.69760742 0.10812988 18.59833984 0.11352539 19.52636719 C0.00762312 21.83389804 -0.34867187 23.79134405 -1 26 C-0.01 26.66 0.98 27.32 2 28 C1.12859375 28.15855469 0.2571875 28.31710937 -0.640625 28.48046875 C-8.92665967 30.10359892 -16.417195 32.26725492 -24 36 C-24.90621094 36.43054688 -25.81242187 36.86109375 -26.74609375 37.3046875 C-29.2630158 38.69468813 -31.1144694 39.82582027 -33 42 C-33.73117694 45.45882993 -33.5563107 48.52477516 -33 52 C-34.32 52 -35.64 52 -37 52 C-37.01458252 51.33581055 -37.02916504 50.67162109 -37.04418945 49.98730469 C-37.25024151 32.73043717 -37.25024151 32.73043717 -41 16 C-41.6872487 14.00697876 -42.36515933 12.01032877 -43 10 C-40.72811785 5.4562357 -32.64454733 3.767001 -28 2 C-19.02102484 -0.97907083 -9.33791985 -0.18309647 0 0 Z " fill="#F6F5F3" transform="translate(508,515)"/>
<path d="M0 0 C4.75 1.875 4.75 1.875 7 3 C6.53299199 12.0636915 5.24689194 20.65394952 3.25 29.5 C2.98485596 30.70309814 2.71971191 31.90619629 2.4465332 33.14575195 C1.64338484 36.76675439 0.82508458 40.38393797 0 44 C-0.2489502 45.0936084 -0.49790039 46.1872168 -0.75439453 47.31396484 C-1.43245605 50.27374256 -2.11905562 53.23129169 -2.8125 56.1875 C-3.01907227 57.07179688 -3.22564453 57.95609375 -3.43847656 58.8671875 C-4.87834792 64.87834792 -4.87834792 64.87834792 -6 66 C-12.87296952 66.59704584 -19.33057175 65.58931056 -26 64 C-25.35708042 60.28043183 -24.32390234 56.95572628 -22.953125 53.44140625 C-22.31286377 51.79942261 -22.31286377 51.79942261 -21.65966797 50.12426758 C-21.19447754 48.94888428 -20.72928711 47.77350098 -20.25 46.5625 C-19.77062988 45.34651123 -19.29125977 44.13052246 -18.79736328 42.87768555 C-14.99188859 33.28347435 -10.97896274 23.78242129 -6.875 14.3125 C-6.58774048 13.64840118 -6.30048096 12.98430237 -6.0045166 12.30007935 C-1.18852592 1.18852592 -1.18852592 1.18852592 0 0 Z " fill="#5C3823" transform="translate(417,669)"/>
<path d="M0 0 C17.15707934 40.40810444 17.15707934 40.40810444 21.24658203 50.20654297 C21.95515132 51.89324095 22.67826732 53.5738069 23.40234375 55.25390625 C23.78519531 56.16011719 24.16804688 57.06632813 24.5625 58 C24.87316406 58.721875 25.18382812 59.44375 25.50390625 60.1875 C26 62 26 62 25 65 C20.48184719 65.88277755 16.22487306 66.10589503 11.625 66.0625 C10.37976563 66.05347656 9.13453125 66.04445313 7.8515625 66.03515625 C6.91054688 66.02355469 5.96953125 66.01195312 5 66 C3.30477139 58.67302635 1.64701382 51.33795265 0 44 C-0.16640991 43.26130676 -0.33281982 42.52261353 -0.50427246 41.76153564 C-1.61992606 36.80742648 -2.72465804 31.85104779 -3.81787109 26.89193726 C-4.18906724 25.21498708 -4.56341375 23.53873111 -4.94091797 21.8631897 C-5.47693573 19.48089835 -6.00145707 17.09633824 -6.5234375 14.7109375 C-6.68774261 13.99196793 -6.85204773 13.27299835 -7.02133179 12.53224182 C-8.40996287 6.08157787 -8.40996287 6.08157787 -7 3 C-2.82142857 0 -2.82142857 0 0 0 Z " fill="#5D3723" transform="translate(445,668)"/>
<path d="M0 0 C2.64 0 5.28 0 8 0 C9.65580742 3.31161483 9.58973141 7.04052435 9.9375 10.6875 C10.53445787 16.66100601 11.18068095 22.61437273 12 28.5625 C12.76789268 34.1815242 13.47695833 39.80358772 14.125 45.4375 C14.21265625 46.17105713 14.3003125 46.90461426 14.390625 47.66040039 C14.47054688 48.3693042 14.55046875 49.07820801 14.6328125 49.80859375 C14.73940186 50.73369751 14.73940186 50.73369751 14.84814453 51.67749023 C15.07266585 55.11136688 15 58.5587911 15 62 C7.74 62 0.48 62 -7 62 C-7 56.62587083 -6.86197382 52.14733802 -6.125 46.9375 C-5.19498273 40.11764797 -4.59899125 33.29852725 -4.0625 26.4375 C-3.34213713 17.43592864 -2.08279184 8.78938156 0 0 Z " fill="#5C3622" transform="translate(427,673)"/>
<path d="M0 0 C7.38942308 3.90384615 7.38942308 3.90384615 9.3125 7.75 C9.98624187 12.80306402 9.98624187 12.80306402 9.3125 15.75 C6.32345983 19.60628281 2.06308787 22.61890765 -2.6875 23.75 C-10.01681394 24.5134702 -14.96924466 23.22883689 -21.125 19.125 C-23.54977679 15.43933928 -23.54049038 12.02236922 -22.6875 7.75 C-17.23642064 -0.90759663 -9.43375227 -3.19788212 0 0 Z " fill="#EC9620" transform="translate(437.6875,647.25)"/>
<path d="M0 0 C0.47351111 6.35061957 -1.61718979 9.20552863 -5.38671875 14.11328125 C-14.57756061 24.26579565 -25.46069205 30.89141925 -39 33 C-39 30 -39 30 -36.83984375 27.58203125 C-35.8791766 26.65180008 -34.9112598 25.72901691 -33.9375 24.8125 C-30.58303422 21.57930571 -27.3838012 18.36913441 -24.4375 14.75 C-19.03037283 8.452439 -8.78792499 0 0 0 Z " fill="#FCF4EA" transform="translate(494,579)"/>
<path d="M0 0 C14.77645556 -0.60933837 27.83232544 0.47561454 41 8 C40.67 9.98 40.34 11.96 40 14 C36.05363916 13.36395649 32.7784165 12.09895073 29.125 10.5 C21.69269357 7.54580718 14.92533856 7.12057915 7 7 C7.14203337 9.37528151 7.28851612 11.75015251 7.4375 14.125 C7.47681641 14.79015625 7.51613281 15.4553125 7.55664062 16.140625 C7.812152 20.15018817 8.26782413 24.04994196 9 28 C5.625 27.4375 5.625 27.4375 2 26 C-0.29910178 20.39962388 -0.24332361 15.04694435 -0.125 9.0625 C-0.11597656 8.18787109 -0.10695313 7.31324219 -0.09765625 6.41210938 C-0.0742957 4.27461936 -0.03843247 2.13727214 0 0 Z " fill="#623E2A" transform="translate(354,515)"/>
<path d="M0 0 C0.02907084 3.58331625 0.04682263 7.16660208 0.0625 10.75 C0.07087891 11.76578125 0.07925781 12.7815625 0.08789062 13.828125 C0.09111328 14.8078125 0.09433594 15.7875 0.09765625 16.796875 C0.10289307 17.69760742 0.10812988 18.59833984 0.11352539 19.52636719 C0.00762312 21.83389804 -0.34867187 23.79134405 -1 26 C-3.31 26.33 -5.62 26.66 -8 27 C-7.34 20.07 -6.68 13.14 -6 6 C-18.13915043 6.40918485 -27.81346271 9.44487591 -39 14 C-39.66 12.02 -40.32 10.04 -41 8 C-27.67683107 0.39105702 -14.97043618 -0.45364958 0 0 Z " fill="#5D3A25" transform="translate(508,515)"/>
<path d="M0 0 C0 0.99 0 1.98 0 3 C-1.65 3.99 -3.3 4.98 -5 6 C-4.34 11.61 -3.68 17.22 -3 23 C-3.33 23 -3.66 23 -4 23 C-4.33 24.65 -4.66 26.3 -5 28 C-5.33 28 -5.66 28 -6 28 C-6.66 21.07 -7.32 14.14 -8 7 C-10.64 7 -13.28 7 -16 7 C-16.04898437 7.54785156 -16.09796875 8.09570312 -16.1484375 8.66015625 C-16.64244955 13.8983875 -17.27556821 19.10091606 -18 24.3125 C-18.93930626 31.19607271 -19.55580506 38.06822109 -20 45 C-20.33 45 -20.66 45 -21 45 C-21 43.35 -21 41.7 -21 40 C-21.99 39.67 -22.98 39.34 -24 39 C-23.38074426 31.54205192 -22.26293646 24.23749511 -20.9375 16.875 C-20.75123047 15.823125 -20.56496094 14.77125 -20.37304688 13.6875 C-19.91867754 11.12439092 -19.46094303 8.56193355 -19 6 C-19.78375 5.71125 -20.5675 5.4225 -21.375 5.125 C-24 4 -24 4 -26 2 C-25.34 1.67 -24.68 1.34 -24 1 C-22.989375 1.474375 -21.97875 1.94875 -20.9375 2.4375 C-16.60569891 4.37872206 -12.68549907 4.75959456 -8 4 C-5.11656294 2.89356485 -2.68477318 1.56204985 0 0 Z " fill="#F1E6D6" transform="translate(443,666)"/>
<path d="M0 0 C2.08940868 3.13411302 2.27364412 3.97450472 2.25 7.5625 C2.25515625 8.34753906 2.2603125 9.13257813 2.265625 9.94140625 C2 12 2 12 0 14 C-1.32 14 -2.64 14 -4 14 C-6.47342266 10.28986601 -6.38503486 8.38939738 -6 4 C-3.84615385 0 -3.84615385 0 0 0 Z " fill="#69442D" transform="translate(433,630)"/>
<path d="M0 0 C4.00975799 1.336586 6.30636851 2.99189371 9.1875 6.0625 C11.80417081 8.92137806 11.80417081 8.92137806 15 11 C15 11.66 15 12.32 15 13 C10.52029862 14.74817615 6.81221774 15.46271324 2 15 C1.34 14.01 0.68 13.02 0 12 C3.63 12 7.26 12 11 12 C11 11.34 11 10.68 11 10 C10.29875 9.79375 9.5975 9.5875 8.875 9.375 C5.19826641 7.6165622 2.52704921 5.19571859 0 2 C0 1.34 0 0.68 0 0 Z " fill="#533121" transform="translate(416,609)"/>
<path d="M0 0 C0.66 0.66 1.32 1.32 2 2 C1.8125 4 1.8125 4 1 6 C-2.22791555 8.1519437 -3.28400809 8.20086443 -7 8 C-7.6875 5.6875 -7.6875 5.6875 -8 3 C-5.93469402 -0.32743741 -3.72952011 -0.4781436 0 0 Z " fill="#5B3928" transform="translate(307,540)"/>
<path d="M0 0 C0.33 0 0.66 0 1 0 C1 6.93 1 13.86 1 21 C0.67 21 0.34 21 0 21 C0 19.35 0 17.7 0 16 C-0.99 15.67 -1.98 15.34 -3 15 C-2.22095672 4.44191344 -2.22095672 4.44191344 0 0 Z " fill="#DFD8D3" transform="translate(422,690)"/>
<path d="M0 0 C0.33 0 0.66 0 1 0 C2.38950417 9.0317771 1.46037646 17.05670282 0 26 C-0.33 26 -0.66 26 -1 26 C-1.144375 25.2575 -1.28875 24.515 -1.4375 23.75 C-1.93326162 21.12211932 -1.93326162 21.12211932 -2.57006836 19.08496094 C-3.04772745 16.76854489 -2.8798421 15.20556627 -2.44140625 12.890625 C-2.30283203 12.13652344 -2.16425781 11.38242187 -2.02148438 10.60546875 C-1.87001953 9.82816406 -1.71855469 9.05085937 -1.5625 8.25 C-1.41490234 7.45722656 -1.26730469 6.66445313 -1.11523438 5.84765625 C-0.75096034 3.89702754 -0.37647488 1.9483107 0 0 Z " fill="#DFD9D5" transform="translate(424,672)"/>
<path d="M0 0 C0.99 0.495 0.99 0.495 2 1 C2.66796875 3.14453125 2.66796875 3.14453125 3.1875 5.8125 C3.36667969 6.68519531 3.54585938 7.55789063 3.73046875 8.45703125 C4.00125299 11.01182167 3.76803506 12.57812945 3 15 C2.65939189 16.66519519 2.32441604 18.33157466 2 20 C1.67 20 1.34 20 1 20 C0.11978631 13.28837062 -0.11381955 6.76594019 0 0 Z " fill="#DCD6D1" transform="translate(436,674)"/>
<path d="M0 0 C2.4375 0.25 2.4375 0.25 5 1 C7 4 7 4 7 7 C4.69 6.67 2.38 6.34 0 6 C-0.38218767 4.34385343 -0.71395102 2.67542976 -1 1 C-0.67 0.67 -0.34 0.34 0 0 Z " fill="#613A27" transform="translate(555,541)"/>
<path d="M0 0 C0.99 0.33 1.98 0.66 3 1 C1.72648692 4.82053924 0.37362475 5.23021375 -3.0625 7.1875 C-3.98160156 7.71730469 -4.90070313 8.24710938 -5.84765625 8.79296875 C-6.55792969 9.19128906 -7.26820313 9.58960938 -8 10 C-6.07712966 5.70621187 -3.37521131 3.22846299 0 0 Z " fill="#5E402F" transform="translate(441,612)"/>
<path d="M0 0 C0 3 0 3 -1.96875 5.26171875 C-2.8040625 6.06222656 -3.639375 6.86273438 -4.5 7.6875 C-5.3353125 8.49574219 -6.170625 9.30398438 -7.03125 10.13671875 C-7.6809375 10.75160156 -8.330625 11.36648438 -9 12 C-9.66 11.34 -10.32 10.68 -11 10 C-9.73232923 8.70522938 -8.46073776 7.41429661 -7.1875 6.125 C-6.47980469 5.40570313 -5.77210938 4.68640625 -5.04296875 3.9453125 C-3 2 -3 2 0 0 Z " fill="#6D4D39" transform="translate(426,487)"/>
<path d="M0 0 C0 3.54404336 -0.60989485 4.10267905 -2.875 6.6875 C-3.40867188 7.31011719 -3.94234375 7.93273437 -4.4921875 8.57421875 C-6 10 -6 10 -8 10 C-6.5682479 4.98886765 -4.01554307 3.05530451 0 0 Z " fill="#624331" transform="translate(203,295)"/>
<path d="M0 0 C0.33 0 0.66 0 1 0 C1 2.97 1 5.94 1 9 C0.01 9.33 -0.98 9.66 -2 10 C-1.54177532 6.53058454 -1.10868317 3.32604951 0 0 Z " fill="#F7F5F4" transform="translate(422,690)"/>
<path d="M0 0 C2.5 2.3125 2.5 2.3125 5 5 C5 5.99 5 6.98 5 8 C2 8 2 8 0 7 C0 6.34 0 5.68 0 5 C0.66 5 1.32 5 2 5 C1.34 3.35 0.68 1.7 0 0 Z " fill="#5E3F2E" transform="translate(414,603)"/>
<path d="M0 0 C0.66 0 1.32 0 2 0 C2.33 2.64 2.66 5.28 3 8 C2.01 8.33 1.02 8.66 0 9 C0 6.03 0 3.06 0 0 Z " fill="#624332" transform="translate(474,557)"/>
<path d="M0 0 C1.125 1.6875 1.125 1.6875 2 4 C1.125 6.75 1.125 6.75 0 9 C-0.99 8.01 -1.98 7.02 -3 6 C-2.34 6 -1.68 6 -1 6 C-0.67 4.02 -0.34 2.04 0 0 Z " fill="#E0D9D2" transform="translate(395,523)"/>
<path d="M0 0 C0.33 0 0.66 0 1 0 C1.33 3.63 1.66 7.26 2 11 C1.01 11 0.02 11 -1 11 C-0.67 7.37 -0.34 3.74 0 0 Z " fill="#C3B7AE" transform="translate(424,672)"/>
<path d="M0 0 C1.89213369 2.38573379 3.02391783 4.07175348 4 7 C3.01 7.33 2.02 7.66 1 8 C0.26919734 6.02253397 -0.39421747 4.01927511 -1 2 C-0.67 1.34 -0.34 0.68 0 0 Z " fill="#D5CAC3" transform="translate(466,523)"/>
<path d="M0 0 C0 3 0 3 -2 5.1875 C-2.66 5.785625 -3.32 6.38375 -4 7 C-4.66 6.67 -5.32 6.34 -6 6 C-2.25 1.125 -2.25 1.125 0 0 Z " fill="#5E4030" transform="translate(609,253)"/>
</svg>
